<?xml version="1.0" ?><!DOCTYPE svg  PUBLIC '-//W3C//DTD SVG 1.1//EN'  'http://www.w3.org/Graphics/SVG/1.1/DTD/svg11.dtd'><svg enable-background="new 0 0 24 24" height="24px" id="Layer_1" version="1.1" viewBox="0 0 24 24" width="24px" xml:space="preserve" xmlns="http://www.w3.org/2000/svg" xmlns:xlink="http://www.w3.org/1999/xlink"><g><g><g><path d="M16.867,23.962c-1.031,0-2.063-0.233-2.992-0.677c-0.576,0.091-1.166,0.137-1.759,0.137     c-6.234,0-11.307-5.071-11.307-11.305c0-0.644,0.056-1.294,0.167-1.937C0.463,9.194,0.192,8.09,0.192,6.979     c0-3.827,3.114-6.94,6.94-6.94c1.188,0,2.356,0.306,3.389,0.886c0.521-0.074,1.056-0.112,1.595-0.112     c6.233,0,11.306,5.071,11.306,11.305c0,0.708-0.068,1.419-0.199,2.117c0.389,0.882,0.586,1.819,0.586,2.789     C23.809,20.85,20.693,23.962,16.867,23.962z M14.002,22.425l0.123,0.062c0.846,0.423,1.795,0.648,2.742,0.648     c3.369,0,6.113-2.741,6.113-6.111c0-0.895-0.191-1.757-0.564-2.565l-0.059-0.123l0.027-0.133     c0.137-0.686,0.209-1.387,0.209-2.085c0-5.777-4.699-10.477-10.478-10.477c-0.546,0-1.089,0.042-1.611,0.124l-0.147,0.023     l-0.128-0.076C9.293,1.158,8.222,0.866,7.132,0.866c-3.371,0-6.112,2.742-6.112,6.112c0,1.022,0.26,2.038,0.752,2.935     l0.071,0.129l-0.027,0.145c-0.118,0.639-0.178,1.289-0.178,1.93c0,5.777,4.701,10.477,10.479,10.477     c0.591,0,1.181-0.049,1.753-0.146L14.002,22.425z M12.086,19.171c-1.479,0-2.715-0.259-3.678-0.771     c-0.686-0.37-1.251-0.871-1.683-1.49c-0.432-0.624-0.651-1.239-0.651-1.831c0-0.355,0.137-0.666,0.406-0.919     c0.272-0.252,0.617-0.38,1.026-0.38c0.335,0,0.625,0.099,0.858,0.295c0.235,0.202,0.433,0.493,0.591,0.868     c0.184,0.42,0.389,0.783,0.607,1.073c0.212,0.279,0.515,0.515,0.901,0.697c0.388,0.183,0.908,0.276,1.546,0.276     c0.877,0,1.598-0.188,2.143-0.561c0.541-0.371,0.805-0.817,0.805-1.367c0-0.435-0.141-0.778-0.43-1.049     c-0.291-0.273-0.676-0.485-1.141-0.63c-0.472-0.148-1.116-0.308-1.912-0.474c-1.079-0.23-1.989-0.503-2.709-0.81     c-0.731-0.312-1.321-0.742-1.752-1.281C6.58,10.275,6.36,9.592,6.36,8.79c0-0.766,0.231-1.456,0.688-2.052     c0.456-0.594,1.122-1.056,1.981-1.372c0.85-0.316,1.865-0.477,3.019-0.477c0.917,0,1.724,0.106,2.397,0.316     c0.676,0.209,1.244,0.492,1.691,0.841c0.445,0.348,0.777,0.721,0.988,1.109c0.207,0.387,0.314,0.772,0.314,1.144     c0,0.349-0.137,0.667-0.402,0.944c-0.27,0.279-0.607,0.42-1.006,0.42c-0.363,0-0.646-0.087-0.84-0.259     C15.008,9.245,14.809,8.98,14.6,8.622c-0.273-0.519-0.596-0.917-0.963-1.198c-0.371-0.281-0.957-0.418-1.789-0.418     c-0.762,0-1.384,0.154-1.848,0.458C9.542,7.766,9.319,8.115,9.319,8.532c0,0.257,0.074,0.474,0.227,0.661     c0.155,0.188,0.373,0.354,0.645,0.49c0.28,0.14,0.567,0.251,0.853,0.331c0.288,0.08,0.772,0.198,1.449,0.355     c0.833,0.179,1.603,0.38,2.281,0.597c0.688,0.221,1.279,0.491,1.76,0.804c0.486,0.316,0.871,0.722,1.145,1.207     c0.271,0.483,0.41,1.085,0.41,1.788c0,0.835-0.238,1.599-0.711,2.269c-0.473,0.669-1.172,1.198-2.076,1.574     C14.4,18.981,13.318,19.171,12.086,19.171z M7.506,14.608c-0.202,0-0.344,0.049-0.461,0.157     c-0.103,0.097-0.144,0.185-0.144,0.313c0,0.42,0.169,0.876,0.503,1.358c0.355,0.511,0.825,0.926,1.394,1.232     c0.839,0.446,1.946,0.674,3.287,0.674c1.123,0,2.098-0.169,2.896-0.501c0.76-0.315,1.336-0.748,1.719-1.287     c0.369-0.526,0.559-1.129,0.559-1.791c0-0.559-0.104-1.023-0.305-1.382c-0.207-0.367-0.5-0.676-0.875-0.919     c-0.418-0.273-0.941-0.511-1.559-0.708c-0.652-0.208-1.396-0.403-2.21-0.578c-0.7-0.163-1.195-0.284-1.49-0.365     c-0.337-0.094-0.674-0.225-1.001-0.388c-0.377-0.189-0.686-0.427-0.916-0.707C8.63,9.379,8.491,8.981,8.491,8.532     c0-0.486,0.183-1.186,1.056-1.76c0.602-0.394,1.376-0.594,2.302-0.594c1.02,0,1.769,0.192,2.287,0.587     c0.469,0.354,0.867,0.844,1.189,1.457c0.205,0.353,0.348,0.505,0.414,0.563c0.033,0.027,0.469,0.128,0.703-0.114     c0.15-0.157,0.17-0.28,0.17-0.37c0-0.233-0.072-0.486-0.217-0.751c-0.154-0.287-0.412-0.573-0.766-0.85     c-0.369-0.287-0.85-0.523-1.428-0.703c-0.594-0.185-1.319-0.279-2.153-0.279c-1.055,0-1.974,0.143-2.732,0.425     C8.605,6.404,8.063,6.774,7.705,7.242C7.362,7.689,7.188,8.21,7.188,8.79c0,0.61,0.159,1.119,0.473,1.513     c0.344,0.43,0.826,0.778,1.43,1.036c0.671,0.286,1.531,0.542,2.556,0.761c0.82,0.171,1.49,0.339,1.988,0.494     c0.584,0.181,1.074,0.457,1.459,0.815c0.459,0.431,0.691,0.987,0.691,1.654c0,0.82-0.402,1.528-1.166,2.051     c-0.686,0.468-1.563,0.704-2.609,0.704c-0.761,0-1.4-0.119-1.9-0.355c-0.507-0.24-0.913-0.559-1.207-0.947     c-0.258-0.341-0.496-0.76-0.708-1.245c-0.109-0.259-0.234-0.451-0.364-0.563C7.778,14.663,7.689,14.608,7.506,14.608z"/></g></g></g></svg>